<svg width="350" height="50" xmlns="http://www.w3.org/2000/svg" preserveAspectRatio="xMidYMid meet" class="iconify iconify--twemoji" role="img" aria-hidden="true">

 <g>
  <title>Layer 1</title>
  <path id="svg_1" d="m29.31212,12.46671c-0.719,0 -2.295,2.243 -3.567,1.029c-0.44,-0.419 1.818,-1.278 1.727,-2.017c-0.075,-0.607 -2.842,-1.52 -1.875,-2.099c0.967,-0.578 2.418,0.841 3.513,0.866c2.382,0.055 4.212,-0.853 4.238,-0.866a1.082,1.082 0 0 1 1.464,0.496c0.27,0.547 0.051,1.213 -0.488,1.486c-0.131,0.066 -2.225,1.105 -5.012,1.105z" fill="#DD2E44"/>
  <path id="svg_2" d="m45.29012,40.83271c-3.967,0 -8.182,-2.912 -8.182,-8.308c0,-1.374 -0.89,-1.661 -1.637,-1.661c-0.746,0 -1.636,0.287 -1.636,1.661c0,5.396 -4.216,8.308 -8.182,8.308s-8.181,-2.77 -8.181,-8.308c0,-13.292 14.182,-15.127 14.182,-13.292c0,1.835 -7.636,-1.107 -7.636,12.185c0,2.215 0.89,2.769 1.636,2.769c0.747,0 1.637,-0.287 1.637,-1.661c0,-5.395 4.215,-8.308 8.182,-8.308c3.966,0 8.182,2.912 8.182,8.308c0,1.374 0.89,1.661 1.637,1.661s1.636,-0.287 1.636,-1.661l0,-16.616c0,-3.855 -3.417,-4.431 -5.454,-4.431c0,0 -3.272,1.108 -6.545,1.108s-4.364,-2.596 -4.364,-4.431c-0.002,-1.835 4.362,-3.323 10.907,-3.323c6.546,0 12,4.451 12,11.077l0,16.615c0,5.396 -4.216,8.308 -8.182,8.308z" fill="#77B255"/>
  <circle id="svg_3" r="1" cy="7.83271" cx="36.47212" fill="#292F33"/>
  <text font-style="normal" font-weight="bold" xml:space="preserve" text-anchor="start" font-family="sans-serif" font-size="35" stroke-width="0" id="svg_4" y="35.47851" x="70.75954" fill="#A0D58A">Actions Python</text>
 </g>
</svg>
